<?xml version="1.0" encoding="utf-8"?>
<!-- Generator: Adobe Illustrator 19.2.0, SVG Export Plug-In . SVG Version: 6.00 Build 0)  -->
<svg version="1.1" id="Layer_1" xmlns="http://www.w3.org/2000/svg" xmlns:xlink="http://www.w3.org/1999/xlink" x="0px" y="0px"
	 viewBox="0 0 107.7 119.9" style="enable-background:new 0 0 107.7 119.9;" xml:space="preserve">
<style type="text/css">
	.st0{fill:#F06BA5;}
	.st1{fill:#C64884;}
	.st2{fill:#4C3494;}
</style>
<g>
	<polygon class="st0" points="23.9,72.4 29.8,57.6 25.9,57.6 33.8,47.7 41.7,57.6 37.7,57.6 43.7,72.4 	"/>
	<path class="st1" d="M44.7,72l-5.5-13.4h2.5c0.4,0,0.7-0.2,0.9-0.6s0.1-0.8-0.1-1.1L34.6,47c-0.4-0.5-1.2-0.5-1.6,0L25.1,57
		c-0.2,0.3-0.3,0.7-0.1,1.1c0.2,0.3,0.5,0.6,0.9,0.6h2.4L22.9,72c-0.1,0.3-0.1,0.7,0.1,0.9c0.2,0.3,0.5,0.4,0.8,0.4h8.9v5.3
		c0,0.6,0.4,1,1,1s1-0.4,1-1v-5.3h8.9c0.3,0,0.6-0.2,0.8-0.4S44.8,72.4,44.7,72z M25.3,71.4L30.7,58c0.1-0.3,0.1-0.7-0.1-0.9
		c-0.2-0.3-0.5-0.4-0.8-0.4H28l5.8-7.3l5.8,7.3h-1.9c-0.3,0-0.6,0.2-0.8,0.4s-0.2,0.6-0.1,0.9l5.5,13.4H25.3z"/>
	<polygon class="st0" points="55.3,73 62.4,55.4 57.8,55.4 67.2,43.5 76.5,55.4 71.8,55.4 79,73 	"/>
	<path class="st1" d="M79.9,72.7l-6.7-16.3h3.3c0.4,0,0.7-0.2,0.9-0.6s0.1-0.8-0.1-1.1l-9.4-11.8c-0.4-0.5-1.2-0.5-1.6,0L57,54.7
		c-0.2,0.3-0.3,0.7-0.1,1.1c0.2,0.3,0.5,0.6,0.9,0.6h3.1l-6.5,16.3c-0.1,0.3-0.1,0.7,0.1,0.9c0.2,0.3,0.5,0.4,0.8,0.4h10.9v6.5
		c0,0.6,0.4,1,1,1s1-0.4,1-1V74H79c0.3,0,0.6-0.2,0.8-0.4S80.1,73,79.9,72.7z M56.8,72l6.5-16.3c0.1-0.3,0.1-0.7-0.1-0.9
		c-0.2-0.3-0.5-0.4-0.8-0.4h-2.5l7.3-9.2l7.3,9.2h-2.7c-0.3,0-0.6,0.2-0.8,0.4s-0.2,0.6-0.1,0.9L77.5,72H56.8z"/>
	<path class="st2" d="M53.8,2L53.8,2c2.1,0,4.2,0.6,6,1.6l39.8,22.9c3.7,2.1,6,6.1,6,10.4l0,46c0,4.3-2.3,8.3-6,10.4l-39.8,23
		c-1.8,1.1-3.9,1.6-6,1.6c-2.1,0-4.2-0.6-6-1.6L8.1,93.4C4.3,91.2,2,87.3,2,83l0-46c0-4.3,2.3-8.3,6-10.4l39.8-23
		C49.6,2.6,51.7,2,53.8,2 M53.8,0c-2.4,0-4.9,0.6-7,1.9L7,24.9C2.7,27.4,0,32,0,37l0,46c0,5,2.7,9.6,7,12.1l39.8,22.9
		c2.2,1.2,4.6,1.9,7,1.9c2.4,0,4.9-0.6,7-1.9l39.8-23c4.3-2.5,7-7.2,7-12.1l0-46c0-5-2.7-9.6-7-12.1L60.8,1.9
		C58.6,0.6,56.2,0,53.8,0L53.8,0z"/>
	<polygon class="st0" points="41.4,76 50,54.5 44.4,54.5 55.8,40.1 67.2,54.5 61.5,54.5 70.3,76 	"/>
	<path class="st1" d="M71.2,75.6L63,55.5h4.3c0.4,0,0.7-0.2,0.9-0.6s0.1-0.8-0.1-1.1L56.6,39.5c-0.4-0.5-1.2-0.5-1.6,0L43.6,53.9
		c-0.2,0.3-0.3,0.7-0.1,1.1c0.2,0.3,0.5,0.6,0.9,0.6h4.1l-8.1,20.1c-0.1,0.3-0.1,0.7,0.1,0.9c0.2,0.3,0.5,0.4,0.8,0.4h13.4v11.1
		c0,0.6,0.4,1,1,1s1-0.4,1-1V77h13.4c0.3,0,0.6-0.2,0.8-0.4S71.3,75.9,71.2,75.6z M42.9,75L51,54.9c0.1-0.3,0.1-0.7-0.1-0.9
		c-0.2-0.3-0.5-0.4-0.8-0.4h-3.5l9.3-11.8l9.3,11.8h-3.7c-0.3,0-0.6,0.2-0.8,0.4s-0.2,0.6-0.1,0.9L68.8,75H42.9z"/>
	<path class="st1" d="M27.3,37.4c-0.3,0-0.6-0.2-0.8-0.4c-0.3-0.5-0.2-1.1,0.3-1.4c0.2-0.1,4-2.6,7.3-1.2c0.6-0.8,1.4-1.3,2.6-1.7
		c1.9-0.6,4.2-0.5,5.3,0.3c0.5,0.3,0.6,0.9,0.3,1.4c-0.3,0.5-0.9,0.6-1.4,0.3c-0.5-0.3-2.1-0.5-3.6-0.1c-0.7,0.2-1.5,0.6-1.9,1.5
		c-0.1,0.3-0.3,0.5-0.6,0.6c-0.3,0.1-0.6,0-0.9-0.1c-2.4-1.7-6,0.7-6,0.7C27.7,37.4,27.5,37.4,27.3,37.4z"/>
	<path class="st1" d="M52,30.1c-0.3,0-0.7-0.2-0.8-0.5c-0.3-0.5-1.8-1.3-3.3-1.5c-0.7-0.1-1.7,0-2.3,0.6c-0.2,0.2-0.5,0.3-0.8,0.3
		c-0.3,0-0.6-0.2-0.8-0.5c-1.6-2.5-5.8-1.7-5.8-1.7c-0.5,0.1-1.1-0.2-1.2-0.8s0.2-1.1,0.8-1.2c0.2,0,4.7-0.9,7.2,1.7
		c0.8-0.5,1.9-0.7,3-0.6c2,0.2,4.1,1.2,4.8,2.4c0.3,0.5,0.2,1.1-0.3,1.4C52.4,30.1,52.2,30.1,52,30.1z"/>
</g>
</svg>
