<?xml version="1.0" encoding="utf-8"?>
<!-- Generator: Adobe Illustrator 19.2.0, SVG Export Plug-In . SVG Version: 6.00 Build 0)  -->
<svg version="1.1" id="Layer_1" xmlns="http://www.w3.org/2000/svg" xmlns:xlink="http://www.w3.org/1999/xlink" x="0px" y="0px"
	 viewBox="0 0 107.7 119.9" style="enable-background:new 0 0 107.7 119.9;" xml:space="preserve">
<style type="text/css">
	.st0{fill:#4C3494;}
	.st1{fill:#F06BA5;}
	.st2{fill:#C64884;}
</style>
<g>
	<g>
		<g>
			<path class="st0" d="M53.8,2L53.8,2c2.1,0,4.2,0.6,6,1.6l39.8,22.9c3.7,2.1,6,6.1,6,10.4l0,46c0,4.3-2.3,8.3-6,10.4l-39.8,23
				c-1.8,1.1-3.9,1.6-6,1.6c-2.1,0-4.2-0.6-6-1.6L8.1,93.4C4.3,91.2,2,87.3,2,83l0-46c0-4.3,2.3-8.3,6-10.4l39.8-23
				C49.6,2.6,51.7,2,53.8,2 M53.8,0c-2.4,0-4.9,0.6-7,1.9L7,24.9C2.7,27.4,0,32,0,37l0,46c0,5,2.7,9.6,7,12.1l39.8,22.9
				c2.2,1.2,4.6,1.9,7,1.9c2.4,0,4.9-0.6,7-1.9l39.8-23c4.3-2.5,7-7.2,7-12.1l0-46c0-5-2.7-9.6-7-12.1L60.8,1.9
				C58.6,0.6,56.2,0,53.8,0L53.8,0z"/>
		</g>
	</g>
	<g>
		<path class="st1" d="M70.2,54.6H59.9l12.2-14c0.6-0.7,0.8-1.7,0.4-2.6c-0.4-0.9-1.3-1.4-2.2-1.4H53c-0.9,0-1.7,0.5-2.2,1.3
			l-14.4,28c-0.4,0.8-0.4,1.7,0.1,2.5c0.4,0.7,1.2,1.2,2.1,1.2h10.6l-5.5,18c-0.3,1.1,0.2,2.3,1.2,2.8c0.4,0.2,0.7,0.2,1.1,0.2
			c0.7,0,1.4-0.3,1.9-0.9l24.2-31c0.6-0.7,0.7-1.8,0.3-2.6C72,55.2,71.2,54.6,70.2,54.6z"/>
		<path class="st2" d="M46.1,91.6c-0.6,0-1.1-0.1-1.6-0.4c-1.5-0.8-2.2-2.4-1.7-4l5.1-16.7h-9.2c-1.2,0-2.3-0.7-2.9-1.7
			c-0.6-1-0.7-2.4-0.1-3.4l14.4-28c0.6-1.1,1.8-1.9,3.1-1.9h17.2c1.3,0,2.6,0.8,3.1,2c0.6,1.2,0.4,2.6-0.5,3.6L62.1,53.6h8.2
			c1.3,0,2.5,0.8,3.1,2c0.6,1.2,0.4,2.7-0.4,3.7l-24.2,31C48.1,91.1,47.1,91.6,46.1,91.6z M53,37.6c-0.5,0-1,0.3-1.3,0.8l-14.4,28
			c-0.2,0.4-0.2,1.1,0.1,1.5c0.3,0.5,0.8,0.8,1.2,0.8h10.6c0.3,0,0.6,0.2,0.8,0.4c0.2,0.3,0.2,0.6,0.2,0.9l-5.4,18
			c-0.2,0.6,0.1,1.3,0.7,1.6c0.5,0.2,1.3,0.1,1.8-0.4l24.2-31c0.3-0.4,0.4-1.1,0.2-1.6c-0.3-0.5-0.8-0.9-1.3-0.9H59.9
			c-0.4,0-0.7-0.2-0.9-0.6c-0.2-0.4-0.1-0.8,0.2-1.1l12.2-14c0.4-0.4,0.5-1,0.2-1.5c-0.2-0.5-0.7-0.8-1.3-0.8H53z"/>
	</g>
</g>
</svg>
