<?xml version="1.0" encoding="utf-8"?>
<!-- Generator: Adobe Illustrator 19.2.0, SVG Export Plug-In . SVG Version: 6.00 Build 0)  -->
<svg version="1.1" id="Layer_1" xmlns="http://www.w3.org/2000/svg" xmlns:xlink="http://www.w3.org/1999/xlink" x="0px" y="0px"
	 viewBox="0 0 107.7 119.9" style="enable-background:new 0 0 107.7 119.9;" xml:space="preserve">
<style type="text/css">
	.st0{fill:#4C3494;}
	.st1{fill:#F06BA5;}
	.st2{fill:#C64884;}
	.st3{fill:#FFFFFF;}
</style>
<g>
	<g>
		<g>
			<path class="st0" d="M53.8,2L53.8,2c2.1,0,4.2,0.6,6,1.6l39.8,22.9c3.7,2.1,6,6.1,6,10.4l0,46c0,4.3-2.3,8.3-6,10.4l-39.8,23
				c-1.8,1.1-3.9,1.6-6,1.6c-2.1,0-4.2-0.6-6-1.6L8.1,93.4C4.3,91.2,2,87.3,2,83l0-46c0-4.3,2.3-8.3,6-10.4l39.8-23
				C49.6,2.6,51.7,2,53.8,2 M53.8,0c-2.4,0-4.9,0.6-7,1.9L7,24.9C2.7,27.4,0,32,0,37l0,46c0,5,2.7,9.6,7,12.1l39.8,22.9
				c2.2,1.2,4.6,1.9,7,1.9c2.4,0,4.9-0.6,7-1.9l39.8-23c4.3-2.5,7-7.2,7-12.1l0-46c0-5-2.7-9.6-7-12.1L60.8,1.9
				C58.6,0.6,56.2,0,53.8,0L53.8,0z"/>
		</g>
	</g>
	<g>
		<g>
			<path class="st1" d="M70.2,81.2c2.1-6.1,5.5-10.7,8.5-11.5c-0.4-2.2-0.4-4.7-0.2-7.4c0.4-4,1.4-7.5,2.8-10
				c-0.2-0.8-0.5-1.6-0.8-2.5c-5.7-15-22.6-22.6-37.6-16.8S20.3,55.6,26,70.7s22.6,22.6,37.6,16.8c2-0.8,3.9-1.7,5.6-2.9
				C69.5,83.5,69.8,82.3,70.2,81.2z"/>
			<path class="st2" d="M53.3,90.4c-4.2,0-8.4-0.9-12.3-2.6c-7.3-3.3-13-9.2-15.8-16.8c-2.9-7.5-2.6-15.7,0.7-23.1
				C29,40.6,35,35,42.5,32.1s15.7-2.6,23.1,0.7c7.3,3.3,13,9.2,15.8,16.8c0.3,0.8,0.6,1.6,0.8,2.5c0.1,0.3,0,0.5-0.1,0.8
				c-1.4,2.4-2.3,5.9-2.7,9.6c-0.2,2.5-0.2,5,0.2,7.1c0.1,0.5-0.2,1-0.7,1.1c-2.3,0.6-5.7,4.5-7.8,10.8c-0.4,1.1-0.7,2.2-0.9,3.3
				c-0.1,0.3-0.2,0.5-0.4,0.6c-1.8,1.2-3.8,2.2-5.8,3C60.5,89.8,56.9,90.4,53.3,90.4z M53.3,32.1c-3.4,0-6.8,0.6-10,1.9
				c-7,2.7-12.6,7.9-15.7,14.8c-3.1,6.9-3.3,14.5-0.6,21.5c2.7,7,7.9,12.6,14.8,15.7c6.9,3.1,14.5,3.3,21.5,0.6
				c1.8-0.7,3.5-1.5,5.1-2.6c0.2-1.1,0.5-2.1,0.9-3.1c0,0,0,0,0,0c2-5.8,5.2-10.4,8.3-11.8c-0.3-2.1-0.3-4.5-0.1-6.8
				c0.4-3.8,1.3-7.3,2.7-10c-0.2-0.7-0.4-1.4-0.7-2c-2.7-7-7.9-12.6-14.8-15.7C61.1,32.9,57.2,32.1,53.3,32.1z M69.3,84.6L69.3,84.6
				L69.3,84.6z"/>
		</g>
		<g>
			<path class="st3" d="M57.6,71.5c-6.2,2.4-13.2-0.7-15.5-7c-2.4-6.2,0.7-13.2,7-15.5s13.2,0.7,15.5,7
				C66.9,62.2,63.8,69.2,57.6,71.5"/>
			<path class="st2" d="M53.3,73.3c-1.8,0-3.6-0.4-5.3-1.1c-3.2-1.4-5.6-4-6.9-7.3c-1.2-3.3-1.1-6.8,0.3-10c1.4-3.2,4-5.6,7.3-6.9
				c6.7-2.6,14.3,0.8,16.8,7.5c2.6,6.7-0.8,14.3-7.5,16.8C56.4,73,54.8,73.3,53.3,73.3z M53.3,49.2c-1.3,0-2.6,0.2-3.9,0.7
				c-2.8,1.1-4.9,3.1-6.1,5.8s-1.3,5.7-0.2,8.4c1,2.8,3.1,4.9,5.8,6.1c2.7,1.2,5.7,1.3,8.4,0.2c5.7-2.2,8.5-8.6,6.4-14.2
				C61.9,51.9,57.7,49.2,53.3,49.2z"/>
		</g>
		<g>
			<path class="st1" d="M85.9,62.2c-0.9-0.4-3.1,2-1.9,3c1.2,1.1,3,1.9,3.2,0.3C87.3,63.9,86.8,62.6,85.9,62.2z"/>
		</g>
		<g>
			<path class="st1" d="M78.8,76.4c-0.6,0.5,0.3,2.6,1.3,2.2c1.1-0.4,2.2-1.3,1.2-1.9C80.4,76,79.4,75.9,78.8,76.4z"/>
		</g>
		<g>
			<path class="st1" d="M86.9,76.4c0.8,1,4.5-0.3,3.8-2.1c-0.6-1.9-2.1-3.8-3.2-2.2C86.4,73.6,86.2,75.4,86.9,76.4z"/>
		</g>
		<g>
			<path class="st3" d="M50.2,36.3c0.4-0.8,1.9,1.3,1.5,2.1c-0.4,0.8-2.9,3.1-2.4,0.9C49.9,37.2,49.5,38,50.2,36.3z"/>
		</g>
		<g>
			<path class="st3" d="M68.2,54.5c0.4-0.8,1.9,1.3,1.5,2.1c-0.4,0.8-2.9,3.1-2.4,0.9C67.8,55.3,67.4,56.1,68.2,54.5z"/>
		</g>
		<g>
			<path class="st3" d="M59.9,41.9c-0.6-0.5,1.6-1,2.2-0.6c0.6,0.5,1.8,2.8,0.1,1.9C60.4,42.4,61,42.9,59.9,41.9z"/>
		</g>
		<g>
			<path class="st3" d="M33.3,49.3c0.7-0.5,0.9,2.1,0.1,2.6c-0.7,0.5-4.1,1.1-2.5-0.5C32.6,49.8,31.8,50.3,33.3,49.3z"/>
		</g>
		<g>
			<path class="st3" d="M27.6,62.7c-0.4-0.3,0.9-0.8,1.3-0.5c0.4,0.3,1.2,2,0.1,1.4C27.9,63,28.3,63.3,27.6,62.7z"/>
		</g>
		<g>
			<path class="st3" d="M37.3,71.2c-0.1-0.5,1.3,0.4,1.5,0.9c0.1,0.5-0.2,2.2-0.8,0.9C37.4,71.7,37.5,72.3,37.3,71.2z"/>
		</g>
		<g>
			<path class="st3" d="M55.5,86.3c0.7-0.5,0.9,2.1,0.1,2.6c-0.7,0.5-4.1,1.1-2.5-0.5C54.8,86.9,54,87.4,55.5,86.3z"/>
		</g>
		<g>
			<path class="st3" d="M50.6,78.9c-0.5,0.3,0.3-1.7,0.8-2c0.5-0.3,2.5-0.4,1.1,0.7C51.2,78.6,51.7,78.3,50.6,78.9z"/>
		</g>
		<g>
			<path class="st3" d="M67.4,80.5c-0.5,0.3,0.3-1.7,0.8-2c0.5-0.3,2.5-0.4,1.1,0.7C67.9,80.2,68.5,79.9,67.4,80.5z"/>
		</g>
		<g>
			<path class="st3" d="M72.1,47c0.1-0.6,1.4,0.7,1.2,1.3c-0.1,0.6-1.5,2.4-1.4,0.8C71.9,47.6,71.8,48.2,72.1,47z"/>
		</g>
		<g>
			<path class="st3" d="M77.6,61.6c1.1,1,0.7,1.9-0.8,1.8c-1.5-0.2-2-1.4-0.7-1.9C77.4,61,77.6,61.6,77.6,61.6z"/>
		</g>
		<g>
			<path class="st3" d="M43.9,78.9c1.1,1,0.7,1.9-0.8,1.8c-1.5-0.2-2-1.4-0.7-1.9C43.6,78.3,43.9,78.9,43.9,78.9z"/>
		</g>
		<g>
			<path class="st3" d="M43.4,42.7c0.5,0.5,0.4,0.9-0.4,0.9c-0.7-0.1-1-0.7-0.4-0.9C43.3,42.4,43.4,42.7,43.4,42.7z"/>
		</g>
		<g>
			<path class="st3" d="M66.6,72.8c0.5,0.5,0.4,0.9-0.4,0.9c-0.7-0.1-1-0.7-0.4-0.9C66.5,72.5,66.6,72.8,66.6,72.8z"/>
		</g>
		<g>
			<path class="st3" d="M69.7,39.2c0.2-0.7,0.6-0.8,0.9-0.1c0.3,0.7-0.1,1.2-0.6,0.8C69.4,39.5,69.7,39.2,69.7,39.2z"/>
		</g>
		<g>
			<path class="st3" d="M59.6,78.8c-0.4-0.7-0.1-1.1,0.6-0.8c0.8,0.3,0.8,1,0.1,1.1C59.6,79.2,59.6,78.8,59.6,78.8z"/>
		</g>
		<g>
			<path class="st1" d="M81.8,68.4c0.5,0.5,0.4,0.9-0.4,0.9c-0.7-0.1-1-0.7-0.4-0.9C81.7,68.1,81.8,68.4,81.8,68.4z"/>
		</g>
	</g>
</g>
</svg>
