<?xml version="1.0" standalone="no"?>
<!DOCTYPE svg PUBLIC "-//W3C//DTD SVG 1.1//EN" "http://www.w3.org/Graphics/SVG/1.1/DTD/svg11.dtd">
<svg width="100%" height="100%" viewBox="0 0 90 99" version="1.1" xmlns="http://www.w3.org/2000/svg" xmlns:xlink="http://www.w3.org/1999/xlink" xml:space="preserve" style="fill-rule:evenodd;clip-rule:evenodd;stroke-linejoin:round;stroke-miterlimit:1.41421;">
    <g id="Layer1">
        <g transform="matrix(0.825652,0,0,0.825652,0,0.00435871)">
            <path d="M53.9,119.9C51.5,119.9 49.1,119.3 46.9,118L7.1,95.1C2.7,92.6 0,88 0,83L0,37C0,32 2.7,27.4 7,24.9L46.8,1.9C51.1,-0.6 56.5,-0.6 60.8,1.9L100.6,24.8C104.9,27.3 107.6,31.9 107.6,36.9L107.6,82.9C107.6,87.9 104.9,92.5 100.6,95L60.8,118C58.7,119.3 56.3,119.9 53.9,119.9Z" style="fill:rgb(76,52,148);fill-rule:nonzero;"/>
        </g>
        <g transform="matrix(0.825652,0,0,0.825652,0,0.00435871)">
            <path d="M24.5,85.7C22.4,85.7 20.7,84 20.7,81.9L20.6,39.2C20.6,37.9 21.3,36.6 22.4,36C23.5,35.3 25,35.3 26.1,35.9L53.6,52L81.1,35.9C82.3,35.3 83.7,35.3 84.8,36C85.9,36.7 86.6,37.9 86.6,39.2L86.6,81.9C86.6,84 84.9,85.7 82.8,85.7C80.7,85.7 79,84 79,81.9L79,45.6L55.8,59.2C54.7,59.8 53.2,59.9 52,59.3L28.3,45.5L28.3,82C28.3,84 26.6,85.7 24.5,85.7L24.5,85.7Z" style="fill:white;fill-rule:nonzero;"/>
        </g>
    </g>
</svg>
