<svg xmlns="http://www.w3.org/2000/svg" width="601" height="501" viewBox="0 0 601 501">
  <defs>
    <style>
      .cls-1 {
        fill: #fff;
        fill-rule: evenodd;
        opacity: 0.04;
      }
    </style>
  </defs>
  <path id="Shape_4_copy" data-name="Shape 4 copy" class="cls-1" d="M5676.46,800.171a13.949,13.949,0,1,0,14.15,13.944C5689.93,806.16,5683.91,800.171,5676.46,800.171Zm0,44.541c-16.84,0-30.98-13.952-30.98-30.562s14.14-30.553,30.98-30.553,30.99,13.943,30.99,30.553C5707.48,830.725,5693.3,844.712,5676.46,844.712Zm441.96-44.541a13.949,13.949,0,1,0,0,27.9A13.949,13.949,0,1,0,6118.42,800.171Zm0,44.541c-16.84,0-30.99-13.952-30.99-30.562s14.15-30.553,30.99-30.553,30.98,13.943,30.98,30.553A30.712,30.712,0,0,1,6118.42,844.712Zm-441.96-92.36c-34.35,0-62.66,27.887-62.66,61.8,0,33.885,28.28,61.807,62.66,61.807h8.08l2.03,37.853c11.47,101.64,82.87,212.57,211.53,212.57,126.67,0,196.03-104.29,209.5-207.963l2.71-42.531h8.07c34.35,0,62.66-27.887,62.66-61.8,0-33.884-28.27-61.807-62.66-61.807-22.91,0-43.78,13.288-54.56,33.876l-5.4,10.621-8.08-8.646c-25.6-25.92-58.59-45.2-96.34-55.163l-10.1-2.657,4.69-9.311c6.08-10.621,8.08-22.6,8.08-31.909-25.62,28.587-55.93,35.231-57.93,35.231l-15.51,3.322,6.07-14.608a48.078,48.078,0,0,0,3.37-15.945c-20.87,21.934-54.56,35.877-55.93,36.533-1.33.664-62.66,17.93-90.95,54.472l-8.06,10.621-6.67-12.49C5720.25,764.985,5699.37,752.352,5676.46,752.352ZM5898.1,1142.99c-139.43,0-216.23-118.27-229.04-228.551l-0.67-22.563A78.986,78.986,0,0,1,5597,813.459c0-43.186,35.71-78.408,79.5-78.408,25.61,0,48.49,11.968,63.99,32.556,33.02-34.531,88.25-49.83,90.95-50.486h0s47.83-19.932,59.96-46.508l8.78-19.932,6.74,20.587c0,0.665,4.69,14.609,2.69,31.219,12.81-5.989,33.02-17.931,46.49-41.875L5966.87,642l5.41,20.588c0,1.311,6.74,28.587-4.03,56.474,32.34,10.622,61.96,27.232,86.23,49.175a78.923,78.923,0,0,1,64-33.22c43.79,0,79.51,35.222,79.51,78.408,0,40.528-31.64,74.4-71.4,78.417l-2.04,27.887C6110.97,1031.4,6034.88,1142.99,5898.1,1142.99Z" transform="translate(-5597 -642)"/>
</svg>
