<?xml version="1.0" encoding="utf-8"?>
<!-- Generator: Adobe Illustrator 19.2.0, SVG Export Plug-In . SVG Version: 6.00 Build 0)  -->
<svg version="1.1" id="Layer_1" xmlns="http://www.w3.org/2000/svg" xmlns:xlink="http://www.w3.org/1999/xlink" x="0px" y="0px"
	 viewBox="0 0 514.3 119.9" style="enable-background:new 0 0 514.3 119.9;" xml:space="preserve">
<style type="text/css">
	.st0{fill:#4C3494;}
	.st1{fill:#FFFFFF;}
</style>
<g>
	<path class="st0" d="M489.5,58.8l23.8-24.1c1.4-1.5,1.4-3.8-0.1-5.2c-1.5-1.4-3.9-1.4-5.3,0.1l-23.6,24l-23.6-24
		c-1.4-1.5-3.8-1.5-5.3-0.1c-1.5,1.4-1.5,3.8-0.1,5.2L479,58.8L455.2,83c-1.4,1.5-1.4,3.8,0.1,5.2c0.7,0.7,1.7,1,2.6,1
		c1,0,2-0.4,2.7-1.1l23.6-24l23.6,24c0.7,0.7,1.7,1.1,2.7,1.1c0.9,0,1.9-0.3,2.6-1c1.5-1.4,1.5-3.8,0.1-5.2L489.5,58.8z"/>
	<g>
		<path class="st0" d="M53.9,119.9c-2.4,0-4.8-0.6-7-1.9L7.1,95.1C2.7,92.6,0,88,0,83l0,0l0-46c0-5,2.7-9.6,7-12.1l39.8-23
			c4.3-2.5,9.7-2.5,14,0l39.8,22.9c4.3,2.5,7,7.1,7,12.1l0,46c0,5-2.7,9.6-7,12.1l-39.8,23C58.7,119.3,56.3,119.9,53.9,119.9z"/>
	</g>
	<g>
		<path class="st1" d="M24.5,85.7c-2.1,0-3.8-1.7-3.8-3.8l-0.1-42.7c0-1.3,0.7-2.6,1.8-3.2c1.1-0.7,2.6-0.7,3.7-0.1l27.5,16.1
			l27.5-16.1c1.2-0.6,2.6-0.6,3.7,0.1c1.1,0.7,1.8,1.9,1.8,3.2l0,42.7c0,2.1-1.7,3.8-3.8,3.8c-2.1,0-3.8-1.7-3.8-3.8l0-36.3
			L55.8,59.2c-1.1,0.6-2.6,0.7-3.8,0.1L28.3,45.5l0,0l0,36.5C28.3,84,26.6,85.7,24.5,85.7C24.5,85.7,24.5,85.7,24.5,85.7z"/>
	</g>
	<g>
		<path class="st0" d="M145.1,89.2c-16.8,0-30.4-13.6-30.4-30.4s13.6-30.4,30.4-30.4s30.4,13.6,30.4,30.4S161.9,89.2,145.1,89.2z
			 M145.1,35.9c-12.6,0-22.9,10.3-22.9,22.9s10.3,22.9,22.9,22.9S168,71.5,168,58.8S157.8,35.9,145.1,35.9z"/>
	</g>
	<g>
		<path class="st0" d="M213,89.2c-16.8,0-30.4-13.6-30.4-30.4s13.6-30.4,30.4-30.4s30.4,13.6,30.4,30.4S229.8,89.2,213,89.2z
			 M213,35.9c-12.6,0-22.9,10.3-22.9,22.9s10.3,22.9,22.9,22.9s22.9-10.3,22.9-22.9S225.7,35.9,213,35.9z"/>
	</g>
	<g>
		<path class="st0" d="M420.2,89.2c-16.8,0-30.4-13.6-30.4-30.4s13.6-30.4,30.4-30.4s30.4,13.6,30.4,30.4S436.9,89.2,420.2,89.2z
			 M420.2,35.9c-12.6,0-22.9,10.3-22.9,22.9s10.3,22.9,22.9,22.9s22.9-10.3,22.9-22.9S432.8,35.9,420.2,35.9z"/>
	</g>
	<path class="st0" d="M307.6,21.6c-2.1,0-3.8,1.7-3.8,3.8v13.6c-5.6-6.4-13.8-10.5-22.9-10.5c-16.8,0-30.4,13.6-30.4,30.4
		s13.6,30.4,30.4,30.4c16.5,0,29.9-13.2,30.4-29.6c0-0.1,0-0.1,0-0.2V25.3C311.4,23.2,309.7,21.6,307.6,21.6z M281,81.7
		c-12.6,0-22.9-10.3-22.9-22.9s10.3-22.9,22.9-22.9s22.9,10.3,22.9,22.9S293.6,81.7,281,81.7z"/>
	<path class="st0" d="M352.3,28.4c-9.1,0-17.3,4.1-22.9,10.5V25.3c0-2.1-1.7-3.8-3.8-3.8s-3.8,1.7-3.8,3.8v34.1c0,0.1,0,0.1,0,0.2
		c0.4,16.4,13.9,29.6,30.4,29.6c16.8,0,30.4-13.6,30.4-30.4S369.1,28.4,352.3,28.4z M352.3,81.7c-12.6,0-22.9-10.3-22.9-22.9
		s10.3-22.9,22.9-22.9s22.9,10.3,22.9,22.9S365,81.7,352.3,81.7z"/>
</g>
</svg>
